<svg xmlns="http://www.w3.org/2000/svg" viewBox="0 0 160 82" fill="none">
  <path d="M22 59c24-11 45-11 68 0 18 8 32 8 48 0" stroke="#102033" stroke-width="3" stroke-linecap="round"/>
  <path d="M37 53c10-22 23-34 42-39" stroke="#102033" stroke-width="3" stroke-linecap="round"/>
  <path d="M48 35c-10-5-18-4-27 2 9 1 17 5 23 13" stroke="#102033" stroke-width="3" stroke-linecap="round" stroke-linejoin="round"/>
  <path d="M61 29c1-10-2-17-8-24-3 10-1 19 8 24Z" stroke="#102033" stroke-width="3" stroke-linejoin="round"/>
  <path d="M67 27c8-7 16-9 26-8-6 9-14 13-26 8Z" stroke="#102033" stroke-width="3" stroke-linejoin="round"/>
  <circle cx="118" cy="22" r="8" stroke="#102033" stroke-width="3"/>
  <path d="M118 7v5M118 32v5M103 22h5M128 22h5" stroke="#102033" stroke-width="3" stroke-linecap="round"/>
</svg>
